<svg xmlns="http://www.w3.org/2000/svg" width="128" height="128" viewBox="0 0 128 128" fill="none">
  <rect width="128" height="128" rx="28" fill="#07111F"/>
  <path d="M92 93V50.5C92 35.3122 79.9117 23 64.9999 23C50.0883 23 38 35.3122 38 50.5V93" stroke="#7DD3FC" stroke-width="11" stroke-linecap="round" stroke-linejoin="round"/>
  <path d="M38 58C31.9249 58 27 62.9249 27 69C27 75.0751 31.9249 80 38 80" stroke="#7DD3FC" stroke-width="11" stroke-linecap="round" stroke-linejoin="round"/>
  <path d="M92 58C98.0751 58 103 62.9249 103 69C103 75.0751 98.0751 80 92 80" stroke="#7DD3FC" stroke-width="11" stroke-linecap="round" stroke-linejoin="round"/>
  <path d="M38 93C38 100.18 43.8203 106 51 106C56.0917 106 60.5 103.09 64 98.8571C67.5 103.09 71.9083 106 77 106C84.1797 106 90 100.18 90 93" fill="#A7F3D0"/>
  <circle cx="54" cy="65" r="5.5" fill="#07111F"/>
  <circle cx="74" cy="65" r="5.5" fill="#07111F"/>
  <path d="M52 82C56 85.5 72 85.5 76 82" stroke="#07111F" stroke-width="5" stroke-linecap="round"/>
</svg>
